<?xml version="1.0" standalone="no"?>
<!DOCTYPE svg PUBLIC "-//W3C//DTD SVG 20010904//EN"
 "http://www.w3.org/TR/2001/REC-SVG-20010904/DTD/svg10.dtd">
<svg version="1.0" xmlns="http://www.w3.org/2000/svg"
 width="400.000000pt" height="400.000000pt" viewBox="0 0 400.000000 400.000000"
 preserveAspectRatio="xMidYMid meet">
<metadata>
Created by potrace 1.11, written by Peter Selinger 2001-2013
</metadata>
<g transform="translate(0.000000,400.000000) scale(0.100000,-0.100000)"
fill="#000000" stroke="none">
<path d="M909 3990 c-232 -21 -440 -120 -610 -289 -175 -176 -265 -371 -289
-626 -13 -146 -13 -2013 0 -2157 23 -240 112 -436 279 -611 163 -171 378 -273
622 -296 156 -15 2037 -15 2185 0 410 40 743 320 863 724 39 132 42 258 38
1355 -3 958 -5 1051 -21 1120 -43 182 -131 343 -260 478 -172 179 -384 279
-640 302 -130 12 -2037 11 -2167 0z m1383 -570 c306 -64 584 -226 793 -460 32
-36 69 -82 83 -102 l25 -38 138 0 139 0 0 -820 0 -820 -139 0 -138 0 -25 -38
c-14 -20 -51 -66 -83 -102 -210 -235 -485 -394 -798 -462 -146 -31 -428 -31
-569 0 -199 44 -360 111 -521 218 -113 76 -262 214 -339 315 l-53 69 -137 0
-138 0 0 820 0 820 138 0 137 0 53 69 c112 146 319 319 483 402 140 70 322
127 474 148 109 15 364 5 477 -19z"/>
<path d="M1765 3325 c-298 -55 -585 -217 -776 -440 l-69 -80 0 -805 0 -805 69
-80 c197 -229 485 -389 790 -440 151 -26 397 -17 539 19 263 66 464 185 661
392 l101 106 0 808 0 808 -92 98 c-201 212 -403 332 -670 400 -88 22 -129 27
-288 30 -133 2 -207 -1 -265 -11z m105 -386 l0 -162 53 7 c28 3 89 6 135 6
l82 0 0 155 0 155 95 0 95 0 2 -167 3 -167 58 -14 57 -14 0 -65 c0 -57 -2 -65
-17 -60 -153 43 -188 49 -305 54 -156 7 -225 -5 -335 -58 -143 -69 -252 -199
-310 -374 -25 -74 -27 -93 -28 -250 0 -192 11 -251 70 -370 59 -121 177 -220
317 -266 66 -22 89 -24 243 -23 172 1 175 1 343 50 21 6 22 4 22 -55 l0 -61
-60 -17 -60 -16 0 -164 0 -163 -95 0 -95 0 0 150 0 150 -119 0 c-66 0 -126 3
-135 6 -14 5 -16 -12 -16 -150 l0 -156 -90 0 -90 0 0 175 0 175 -69 35 c-210
105 -324 308 -346 615 -25 341 120 651 367 789 l48 26 0 193 0 192 90 0 90 0
0 -161z"/>
</g>
</svg>
